<?xml version="1.0" encoding="utf-8"?>
<svg id="svg34570" viewBox="-0.471 248.289 1024.471 217.565" height="280px" width="1024px" version="1.1" xmlns="http://www.w3.org/2000/svg" xmlns:xlink="http://www.w3.org/1999/xlink">
  <g id="logo-group">
    <g id="logo-center" transform="matrix(1, 0, 0, 1, -1.889157, 0.693977)">
      <image id="icon_container" x="0" y="0" style="display: none;" xlink:href=""/>
      <g id="title" style="font-style:normal;font-weight:300;font-size:72px;line-height:1;font-family:'Montserrat Light Alt1';font-variant-ligatures:none;text-align:center;text-anchor:middle" transform="translate(0 0)">
        <path id="path34613" style="font-style:normal;font-weight:300;font-size:72px;line-height:1;font-family:'Montserrat Light Alt1';font-variant-ligatures:none;text-align:center;text-anchor:middle" d="m 338.07331,-38.16 c -2.304,-3.816 -5.472,-6.768 -9.504,-9 -4.032,-2.16 -8.712,-3.24 -13.896,-3.24 h -19.944 v 3.312 h 19.656 c 4.608,0 8.712,0.936 12.312,2.808 3.528,1.872 6.264,4.464 8.208,7.704 1.872,3.312 2.88,7.128 2.88,11.376 0,4.32 -1.008,8.064 -2.88,11.376 -1.944,3.312 -4.68,5.904 -8.208,7.776 -3.6,1.872 -7.704,2.736 -12.312,2.736 h -15.984 V -25.2 h -3.672 V 0 h 19.944 c 5.184,0 9.864,-1.08 13.896,-3.24 4.032,-2.16 7.2,-5.112 9.504,-8.928 2.232,-3.816 3.384,-8.136 3.384,-13.032 0,-4.824 -1.152,-9.144 -3.384,-12.96 z" stroke-width="3" stroke-linejoin="miter" stroke-miterlimit="2" fill="#ffb6af" stroke="#ffb6af" transform="translate(0 237.64816000000002) translate(22.667322499999784 50.336000000000006) scale(2.22) translate(-294.72931 50.4)"/>
        <path id="path34615" style="font-style:normal;font-weight:300;font-size:72px;line-height:1;font-family:'Montserrat Light Alt1';font-variant-ligatures:none;text-align:center;text-anchor:middle" d="m 376.46169,-34.272 c -2.52,-2.376 -6.12,-3.6 -10.728,-3.6 -2.88,0 -5.688,0.504 -8.28,1.44 -2.664,0.936 -4.896,2.232 -6.768,3.888 l 1.8,2.592 c 1.584,-1.44 3.456,-2.592 5.76,-3.456 2.304,-0.864 4.68,-1.296 7.2,-1.296 3.6,0 6.408,0.936 8.28,2.736 1.872,1.872 2.88,4.536 2.88,7.992 v 3.024 h -12.888 c -4.896,0 -8.496,1.008 -10.728,2.952 -2.232,1.944 -3.312,4.464 -3.312,7.56 0,3.24 1.152,5.832 3.6,7.776 2.448,2.016 5.76,2.952 9.936,2.952 3.168,0 5.976,-0.576 8.28,-1.8 2.304,-1.224 4.032,-2.952 5.256,-5.184 V 0 h 3.456 v -23.832 c 0,-4.608 -1.296,-8.064 -3.744,-10.44 z m -4.824,29.448 c -2.16,1.44 -4.824,2.16 -7.92,2.16 -3.312,0 -5.904,-0.648 -7.704,-2.088 -1.872,-1.44 -2.736,-3.384 -2.736,-5.832 0,-2.304 0.792,-4.176 2.448,-5.544 1.656,-1.296 4.32,-2.016 8.064,-2.016 h 12.816 v 7.056 c -1.152,2.736 -2.808,4.824 -4.968,6.264 z" stroke-width="3" stroke-linejoin="miter" stroke-miterlimit="2" fill="#e8b5b8" stroke="#e8b5b8" transform="translate(0 237.64816000000002) translate(144.65272609999974 78.14815999999999) scale(2.22) translate(-349.67769 37.872)"/>
        <path id="path34617" style="font-style:normal;font-weight:300;font-size:72px;line-height:1;font-family:'Montserrat Light Alt1';font-variant-ligatures:none;text-align:center;text-anchor:middle" d="m 423.47656,-35.424 c -2.88,-1.584 -6.048,-2.448 -9.504,-2.448 -3.384,0 -6.408,0.864 -9.144,2.448 -2.736,1.584 -4.824,3.816 -6.264,6.696 v -8.856 h -3.456 v 51.552 h 3.6 V -8.568 c 1.44,2.808 3.528,4.968 6.264,6.552 2.664,1.584 5.688,2.304 9,2.304 3.456,0 6.624,-0.792 9.504,-2.376 2.808,-1.584 5.04,-3.888 6.624,-6.768 1.584,-2.88 2.448,-6.192 2.448,-9.936 0,-3.672 -0.864,-6.984 -2.448,-9.864 -1.584,-2.88 -3.816,-5.112 -6.624,-6.768 z m -1.944,30.456 c -2.304,1.368 -4.896,2.016 -7.776,2.016 -2.88,0 -5.472,-0.648 -7.776,-2.016 -2.304,-1.296 -4.104,-3.168 -5.4,-5.616 -1.296,-2.376 -1.944,-5.112 -1.944,-8.208 0,-3.024 0.648,-5.76 1.944,-8.208 1.296,-2.376 3.096,-4.248 5.4,-5.616 2.304,-1.296 4.896,-2.016 7.776,-2.016 2.88,0 5.472,0.72 7.776,2.016 2.304,1.368 4.104,3.24 5.4,5.616 1.296,2.448 2.016,5.184 2.016,8.208 0,3.096 -0.72,5.832 -2.016,8.208 -1.296,2.448 -3.096,4.32 -5.4,5.616 z" stroke-width="3" stroke-linejoin="miter" stroke-miterlimit="2" fill="#d2b4c1" stroke="#d2b4c1" transform="translate(0 237.64816000000002) translate(245.50925749999976 78.14815999999999) scale(2.22) translate(-395.10856 37.872)"/>
        <path id="path34619" style="font-style:normal;font-weight:300;font-size:72px;line-height:1;font-family:'Montserrat Light Alt1';font-variant-ligatures:none;text-align:center;text-anchor:middle" d="m 472.13281,-35.424 c -2.88,-1.584 -6.048,-2.448 -9.504,-2.448 -3.384,0 -6.408,0.864 -9.144,2.448 -2.736,1.584 -4.824,3.816 -6.264,6.696 v -8.856 h -3.456 v 51.552 h 3.6 V -8.568 c 1.44,2.808 3.528,4.968 6.264,6.552 2.664,1.584 5.688,2.304 9,2.304 3.456,0 6.624,-0.792 9.504,-2.376 2.808,-1.584 5.04,-3.888 6.624,-6.768 1.584,-2.88 2.448,-6.192 2.448,-9.936 0,-3.672 -0.864,-6.984 -2.448,-9.864 -1.584,-2.88 -3.816,-5.112 -6.624,-6.768 z m -1.944,30.456 c -2.304,1.368 -4.896,2.016 -7.776,2.016 -2.88,0 -5.472,-0.648 -7.776,-2.016 -2.304,-1.296 -4.104,-3.168 -5.4,-5.616 -1.296,-2.376 -1.944,-5.112 -1.944,-8.208 0,-3.024 0.648,-5.76 1.944,-8.208 1.296,-2.376 3.096,-4.248 5.4,-5.616 2.304,-1.296 4.896,-2.016 7.776,-2.016 2.88,0 5.472,0.72 7.776,2.016 2.304,1.368 4.104,3.24 5.4,5.616 1.296,2.448 2.016,5.184 2.016,8.208 0,3.096 -0.72,5.832 -2.016,8.208 -1.296,2.448 -3.096,4.32 -5.4,5.616 z" stroke-width="3" stroke-linejoin="miter" stroke-miterlimit="2" fill="#bbb3ca" stroke="#bbb3ca" transform="translate(0 237.64816000000002) translate(353.5261324999998 78.14815999999999) scale(2.22) translate(-443.76481 37.872)"/>
        <path id="path34621" style="font-style:normal;font-weight:300;font-size:72px;line-height:1;font-family:'Montserrat Light Alt1';font-variant-ligatures:none;text-align:center;text-anchor:middle" d="m 514.59706,-4.248 c -2.088,0.864 -4.392,1.296 -6.768,1.296 -3.888,0 -7.128,-1.008 -9.864,-3.024 -2.736,-2.016 -4.608,-4.752 -5.472,-8.208 l 31.752,-6.192 c -0.216,-3.312 -1.008,-6.264 -2.592,-8.928 -1.584,-2.664 -3.672,-4.752 -6.264,-6.264 -2.592,-1.512 -5.544,-2.304 -8.784,-2.304 -3.528,0 -6.696,0.864 -9.432,2.448 -2.808,1.656 -4.968,3.888 -6.552,6.768 -1.584,2.88 -2.304,6.192 -2.304,9.864 0,3.744 0.792,6.984 2.448,9.864 1.656,2.88 3.96,5.184 6.912,6.768 2.952,1.656 6.264,2.448 10.08,2.448 2.88,0 5.544,-0.504 8.064,-1.512 2.376,-1.008 4.464,-2.52 6.12,-4.608 l -2.088,-2.376 c -1.44,1.8 -3.168,3.096 -5.256,3.96 z m -15.624,-28.44 c 2.232,-1.296 4.752,-2.016 7.632,-2.016 2.448,0 4.752,0.576 6.768,1.656 2.016,1.08 3.6,2.592 4.896,4.392 1.224,1.872 2.016,3.96 2.376,6.192 l -28.656,5.616 c -0.144,-0.936 -0.144,-1.656 -0.144,-2.232 0,-2.952 0.576,-5.688 1.872,-8.064 1.224,-2.376 2.952,-4.248 5.256,-5.544 z" stroke-width="3" stroke-linejoin="miter" stroke-miterlimit="2" fill="#a4b1d2" stroke="#a4b1d2" transform="translate(0 237.64816000000002) translate(452.43212749999986 78.14815999999999) scale(2.22) translate(-488.31706 37.872)"/>
        <path id="path34623" style="font-style:normal;font-weight:300;font-size:72px;line-height:1;font-family:'Montserrat Light Alt1';font-variant-ligatures:none;text-align:center;text-anchor:middle" d="m 544.30831,-35.64 c -2.448,1.44 -4.248,3.528 -5.4,6.264 v -8.208 h -3.456 V 0 h 3.6 v -19.584 c 0,-4.608 1.152,-8.28 3.528,-10.872 2.304,-2.592 5.616,-3.96 9.792,-3.96 l 0.864,0.072 v -3.528 c -3.528,0 -6.48,0.792 -8.928,2.232 z" stroke-width="3" stroke-linejoin="miter" stroke-miterlimit="2" fill="#a5b2da" stroke="#a5b2da" transform="translate(0 237.64816000000002) translate(557.0723825 78.14815999999999) scale(2.22) translate(-535.45231 37.872)"/>
        <path id="path34625" style="font-style:normal;font-weight:300;font-size:72px;line-height:1;font-family:'Montserrat Light Alt1';font-variant-ligatures:none;text-align:center;text-anchor:middle" d="m 563.74494,-50.4 v 3.312 h 32.256 V -50.4 Z m 0,50.4 h 3.672 v -22.248 h 28.584 v -3.312 h -32.256 z" stroke-width="3" stroke-linejoin="miter" stroke-miterlimit="2" fill="#b6b3e2" stroke="#b6b3e2" transform="translate(0 237.64816000000002) translate(619.8820211000001 50.336000000000006) scale(2.22) translate(-563.74494 50.4)"/>
        <path id="path34627" style="font-style:normal;font-weight:300;font-size:72px;line-height:1;font-family:'Montserrat Light Alt1';font-variant-ligatures:none;text-align:center;text-anchor:middle" d="m 611.64856,-2.16 c 2.88,1.656 6.048,2.448 9.648,2.448 3.528,0 6.696,-0.792 9.576,-2.448 2.88,-1.584 5.112,-3.888 6.768,-6.768 1.584,-2.88 2.448,-6.192 2.448,-9.864 0,-3.6 -0.864,-6.912 -2.448,-9.792 -1.656,-2.88 -3.888,-5.184 -6.768,-6.84 -2.88,-1.584 -6.048,-2.448 -9.576,-2.448 -3.6,0 -6.768,0.864 -9.648,2.448 -2.88,1.656 -5.112,3.96 -6.696,6.84 -1.656,2.88 -2.448,6.192 -2.448,9.792 0,3.672 0.792,6.984 2.448,9.864 1.584,2.88 3.816,5.184 6.696,6.768 z m 17.352,-2.808 c -2.304,1.368 -4.824,2.016 -7.704,2.016 -2.88,0 -5.472,-0.648 -7.776,-2.016 -2.304,-1.296 -4.104,-3.168 -5.4,-5.616 -1.296,-2.376 -1.944,-5.112 -1.944,-8.208 0,-3.024 0.648,-5.76 1.944,-8.208 1.296,-2.376 3.096,-4.248 5.4,-5.616 2.304,-1.296 4.896,-2.016 7.776,-2.016 2.88,0 5.4,0.72 7.704,2.016 2.304,1.368 4.104,3.24 5.4,5.616 1.296,2.448 2.016,5.184 2.016,8.208 0,3.096 -0.72,5.832 -2.016,8.208 -1.296,2.448 -3.096,4.32 -5.4,5.616 z" stroke-width="3" stroke-linejoin="miter" stroke-miterlimit="2" fill="#c7b5e9" stroke="#c7b5e9" transform="translate(0 237.64816000000002) translate(705.9283775 78.14815999999999) scale(2.22) translate(-602.50456 37.872)"/>
        <path id="path34629" style="font-style:normal;font-weight:300;font-size:72px;line-height:1;font-family:'Montserrat Light Alt1';font-variant-ligatures:none;text-align:center;text-anchor:middle" d="M 651.18669,-53.424 V 0 h 3.6 v -53.424 z" stroke-width="3" stroke-linejoin="miter" stroke-miterlimit="2" fill="#d8b6f0" stroke="#d8b6f0" transform="translate(0 237.64816000000002) translate(814.0027061000002 43.62272000000001) scale(2.22) translate(-651.18669 53.424)"/>
        <path id="path34631" style="font-style:normal;font-weight:300;font-size:72px;line-height:1;font-family:'Montserrat Light Alt1';font-variant-ligatures:none;text-align:center;text-anchor:middle" d="M 683.42244,-20.088 699.40644,0 h 4.464 l -17.784,-22.392 16.2,-15.192 h -4.608 l -24.048,21.96 v -37.8 h -3.6 V 0 h 3.6 v -11.16 z" stroke-width="3" stroke-linejoin="miter" stroke-miterlimit="2" fill="#e9b8f8" stroke="#e9b8f8" transform="translate(0 237.64816000000002) translate(855.8358311000001 43.62272000000001) scale(2.22) translate(-670.03044 53.424)"/>
        <path id="path34633" style="font-style:normal;font-weight:300;font-size:72px;line-height:1;font-family:'Montserrat Light Alt1';font-variant-ligatures:none;text-align:center;text-anchor:middle" d="m 712.09756,-1.08 c 2.736,0.936 5.616,1.368 8.64,1.368 4.68,0 8.352,-0.936 10.944,-2.808 2.592,-1.872 3.888,-4.32 3.888,-7.488 0,-2.304 -0.648,-4.176 -1.872,-5.544 -1.296,-1.296 -2.808,-2.304 -4.608,-2.88 -1.8,-0.576 -4.176,-1.152 -7.056,-1.728 -2.664,-0.504 -4.752,-1.008 -6.192,-1.44 -1.44,-0.432 -2.664,-1.152 -3.672,-2.088 -1.008,-0.936 -1.512,-2.232 -1.512,-3.96 0,-2.088 0.864,-3.816 2.664,-5.112 1.728,-1.296 4.392,-1.944 7.92,-1.944 2.016,0 4.032,0.288 6.048,0.864 1.944,0.576 3.672,1.44 5.256,2.52 l 1.656,-2.88 c -1.512,-1.08 -3.456,-1.944 -5.76,-2.664 -2.376,-0.648 -4.752,-1.008 -7.128,-1.008 -4.608,0 -8.136,1.008 -10.584,2.952 -2.448,1.944 -3.672,4.392 -3.672,7.344 0,2.448 0.648,4.392 1.944,5.76 1.296,1.44 2.808,2.448 4.68,3.024 1.8,0.648 4.176,1.224 7.2,1.728 2.52,0.504 4.536,0.936 5.976,1.368 1.44,0.432 2.592,1.152 3.6,2.016 1.008,0.936 1.512,2.16 1.512,3.744 0,2.232 -0.936,3.96 -2.736,5.184 -1.8,1.296 -4.608,1.872 -8.352,1.872 -2.664,0 -5.184,-0.432 -7.632,-1.296 -2.448,-0.864 -4.392,-1.944 -5.904,-3.24 l -1.656,2.88 c 1.512,1.44 3.672,2.592 6.408,3.456 z" stroke-width="3" stroke-linejoin="miter" stroke-miterlimit="2" fill="#fab9ff" stroke="#fab9ff" transform="translate(0 237.64816000000002) translate(934.9990775000001 78.14815999999999) scale(2.22) translate(-705.68956 37.872)"/>
      </g>
      <image id="icon" x="0" y="0" style="display: none;" xlink:href=""/>
    </g>
  </g>
</svg>